PathFileType	4	(X/Y/Z)	55_2_118_p1_0-184_filt_butterworth.trc
DataRate	CameraRate	NumFrames	NumMarkers	Units	OrigDataRate	OrigDataStartFrame	OrigNumFrames
47.0	47.0	7	27	m	47.0	69	184
Frame#	Time	RHip			RKnee			RAnkle			RBigToe			RSmallToe			RHeel			LHip			LKnee			LAnkle			LBigToe			LSmallToe			LHeel			Neck			Head			Nose			RShoulder			RElbow			RWrist			RThumb			RIndex			RPinky			LShoulder			LElbow			LWrist			LThumb			LIndex			LPinky			
		X1	Y1	Z1	X2	Y2	Z2	X3	Y3	Z3	X4	Y4	Z4	X5	Y5	Z5	X6	Y6	Z6	X7	Y7	Z7	X8	Y8	Z8	X9	Y9	Z9	X10	Y10	Z10	X11	Y11	Z11	X12	Y12	Z12	X13	Y13	Z13	X14	Y14	Z14	X15	Y15	Z15	X16	Y16	Z16	X17	Y17	Z17	X18	Y18	Z18	X19	Y19	Z19	X20	Y20	Z20	X21	Y21	Z21	X22	Y22	Z22	X23	Y23	Z23	X24	Y24	Z24	X25	Y25	Z25	X26	Y26	Z26	X27	Y27	Z27	
69	1.4680851063829787	0.34071388056603247	1.0598823028324262	0.4969779032484758	0.35260860475851186	0.5860969412759476	0.5441815664289197	0.3598775666721568	0.14167142173976968	0.5918081772967511	0.28380036474336795	0.13096859448916512	0.4130420140896108	0.3531720544085769	0.13066758997443384	0.41385296183739795	0.34539150025744275	0.06601755636306687	0.6948107513014202	0.1391078010445171	1.0661743417514484	0.49284931262580955	0.11742737408865195	0.5799742787481537	0.5469969315780682	0.13202778629394146	0.15083323473490673	0.5990565746726171	0.12946015381634365	0.1217431750751837	0.42372400110088865	0.08214654491758693	0.11210007627891377	0.4723374359947053	0.1517475226639949	0.07039570313080662	0.6748589764987863	0.24361488010431873	1.529382849659573	0.40874264651877756	0.2437056115956054	1.7701255209355926	0.2544487541164693	0.24232935177478368	1.6203128511226312	0.2304700997751825	0.39064614897994976	1.4742422800882078	0.3950094400025689	0.41729600333733363	1.213867326932886	0.32797704090333113	0.3287711660996973	1.3409832918495541	0.21335235018926132	0.2585803394153224	1.451779581149872	0.22496759569293673	0.25789252301851473	1.4650751467067662	0.17284114594538522	0.2544573364068564	1.407821448613954	0.16729431660608263	0.09596521355001353	1.4768540019765437	0.45417804335458367	0.0481192513127274	1.2372086752810088	0.44419405130600476	0.025341454055979432	0.9907532328016991	0.4300643374909734	0.05932076228270285	0.8830515809779879	0.41214989662301044	0.043531904474082395	0.8516981535019426	0.40043978626750554	0.021409519498486393	0.8599555734009166	0.43240686328462496	
70	1.4893617021276595	0.3411171884558116	1.056903907714505	0.4974006683622626	0.35267299004090663	0.5850870083700964	0.5443581357233201	0.3598795398487448	0.1416728815329978	0.5918008388905034	0.28465319469591077	0.1296941874736919	0.41546443809284345	0.35323513016488856	0.1306765903211479	0.4142107832920686	0.34539119937447316	0.06632663978089673	0.6947409457346165	0.1388352389240092	1.063972036073146	0.4917553966215783	0.11703992929040073	0.5800106987686605	0.5468189902717482	0.1318195964925887	0.15088999454652496	0.5989436296011825	0.12957313601810486	0.12245084418767876	0.42365964718814725	0.0821224476187037	0.11211186657433361	0.47231890036057195	0.15173685546342108	0.07036643560001796	0.6748553598921228	0.24291523185443137	1.530834275040986	0.41144478170334164	0.2422014028789751	1.7708832223492534	0.2555001024106017	0.24185784696341442	1.6221240641718646	0.23243130068849077	0.38931869796327917	1.473864098488256	0.4027489745105378	0.42039431171455177	1.2119937983137419	0.3322346092031489	0.3287987592755481	1.3345446340458633	0.21377513321996605	0.2566982462792099	1.4390371578809038	0.22185428985246453	0.25653666506829853	1.449407022783712	0.17112025825399813	0.2538346370482819	1.3942186977875093	0.16947278186731055	0.09474857818878978	1.4759683816142504	0.45939218771604934	0.04815507855963462	1.2374949589477628	0.44422758138782736	0.02414138312109093	0.9932182358161201	0.43158443350275694	0.057976609847675664	0.8841247811502163	0.41335208285823133	0.04095962546702086	0.8515397697240679	0.3998387819371785	0.018656391604912347	0.860439914471673	0.4337577881590458	
71	1.5106382978723405	0.3414646216124423	1.0538984368845117	0.49759584903804044	0.3527265345087426	0.5840005701158523	0.5444965172048952	0.35988053500894485	0.14167858079967596	0.591789217226033	0.28540589642100084	0.12854679800176091	0.41757888511199764	0.35329356420159513	0.13070868304501604	0.4145485831473255	0.34534926753047157	0.06675722979088895	0.6945934074813237	0.13841637804062154	1.0613190260546912	0.49131835580754635	0.11665865256360781	0.5800436535177859	0.5466435034344173	0.13153056376287814	0.1509699739737802	0.5987840740456454	0.12973225642207722	0.12330891864398147	0.42360896094154243	0.08210085244872656	0.11213405127240668	0.4722877077807423	0.1517254008756031	0.07034060903050725	0.6748514321351431	0.24233526614012757	1.5324572739047428	0.41359634912780796	0.24084648411215104	1.7715132804816398	0.25547863003093724	0.24117423254354758	1.624076392523913	0.23472328521404046	0.3879598067310741	1.4735853547162479	0.40896941191530356	0.42505665094040973	1.2095255851607685	0.33876078627537515	0.3285194917222808	1.3271785659046478	0.21480106351943107	0.2538616451715459	1.42708721037988	0.2187369045588255	0.25460466312876795	1.4326130633400012	0.17087885751211795	0.2537917683197821	1.3782005318657493	0.17353792870167167	0.09403948566434917	1.4744751254600024	0.4650780910141136	0.04815705326896801	1.237190851111256	0.4443215260832457	0.023220135043701837	0.9949332069962725	0.43226593940952296	0.05681304776088921	0.8843185429863437	0.41465747891623783	0.039147621238036	0.8509982953766567	0.39950132640485314	0.01574474301703945	0.8598232095508108	0.43603804350684106	
72	1.5319148936170213	0.3416857543946424	1.0510402086439934	0.49745059374297085	0.3527829461176158	0.5828492123600093	0.5446021918865792	0.35988182912547645	0.14168706757335278	0.5917764158149788	0.2858536395688543	0.1278281419293506	0.41878851678660717	0.3533404346614376	0.13073832266690202	0.414805087066772	0.34526606772955803	0.06718237269105992	0.694356588685281	0.13793390912016293	1.0584054441641197	0.491346889428333	0.11629151147828226	0.5800755732409955	0.5464728774134939	0.13115349387880657	0.15107427402721663	0.5985749362235401	0.12992176207474182	0.1241835508369514	0.4236021937628084	0.08208411982100208	0.11216622983433147	0.47224927391339777	0.1517113020750258	0.07031424149569919	0.6748487907990681	0.2420292604187146	1.534012252725748	0.41483710952633635	0.23983022897465067	1.77195041010636	0.2547202293830283	0.24040532722345806	1.6258821457164472	0.23705472411327885	0.3863486108655826	1.4736572224661662	0.41329467585432705	0.4304225629402138	1.206306428022367	0.35004423374021537	0.3282696391800259	1.3191135523273254	0.216598313978204	0.25120196699545383	1.4161569689624967	0.2159154085558901	0.25275730987144174	1.4164493470078496	0.17106706873148436	0.25441974109516363	1.3616185958584714	0.1781896032345355	0.09379968646015557	1.4727909860952122	0.47032156076523424	0.04811113226654942	1.2364429059674522	0.44448619266543465	0.02276600835907192	0.9956883542219273	0.4321584239187647	0.05582123391513636	0.8840031387012379	0.41533398824273093	0.03792895470194496	0.8504115654033717	0.39874902849539917	0.013067558540428535	0.8584389118956395	0.43923921247957753	
73	1.553191489361702	0.34172560253563267	1.0483967807436927	0.49687091029116665	0.3528421325747386	0.5816563686490148	0.5446885223026197	0.3598829934496424	0.14169499394189738	0.5917672173039122	0.2859441090829088	0.12756350269371494	0.4188423031436287	0.35336018221705	0.13073173906078484	0.4149063723670093	0.34515568041350186	0.0676021056685866	0.6940902298489836	0.13742112202153134	1.0555235380188515	0.4916459721590708	0.11594660132094531	0.5801088343222198	0.5463083247878079	0.1306796673101933	0.15120267445357283	0.5983125110282095	0.13012306989181333	0.12497602411046907	0.42364240877744	0.08207150869222066	0.11220050785628562	0.47221300148040446	0.15169204115712118	0.07027868873874814	0.6748457418535881	0.24195486489855697	1.5355651955231395	0.4150128892001605	0.23921216666216216	1.7722201564013207	0.25412213731998673	0.2396752920746846	1.6273030295222066	0.23920364645996234	0.38460789178938537	1.4744194399832424	0.4154424207459422	0.4353675046541584	1.2026179473389824	0.3675835023956352	0.32836209048454257	1.3099903589199822	0.21942167964997455	0.24942346851367772	1.405927746662716	0.21374313497799097	0.25143486832050765	1.401851475766135	0.17175848819213219	0.2554609900363231	1.3452655333277759	0.18288790133875438	0.09359588571913077	1.471260338828153	0.4743925055790458	0.04803365579311228	1.235546199748343	0.4447030747531048	0.02276412218081307	0.9954723740855781	0.4317804633281851	0.054735372831170734	0.8834256057902967	0.41509435112474335	0.036876081969154165	0.8500540087497597	0.3970522893688614	0.011004717862756369	0.8567472594149597	0.44286265051568163	
74	1.574468085106383	0.3415892187637351	1.0459985154608367	0.4958918370713797	0.352887201068188	0.580428444123483	0.5447564412901789	0.35988260979280917	0.14169954106910246	0.5917658939921622	0.28562676501143475	0.1278387117423992	0.417603428653158	0.3533461883539632	0.13068516637451447	0.414839839691435	0.3450242163319407	0.06808686794047439	0.6938291473039976	0.13685271386775189	1.0528231794758691	0.4922438057238089	0.11563182191826449	0.5801424187585662	0.5461506452330477	0.13013458223648286	0.15134563215312063	0.5980125345698352	0.13030820447311212	0.12558480486448187	0.4237127578882057	0.08206464325211008	0.11222727994151274	0.47218610139123346	0.15166786783701994	0.07023111692745551	0.6748425584414469	0.2418193814736158	1.53729675595842	0.41451546096707004	0.23874797133584447	1.7726549761314025	0.25436605798633055	0.239109065991292	1.6284965013663766	0.24081418364111554	0.38313137611828463	1.4756937653604099	0.4164001525226881	0.43946234832621867	1.1994972038969873	0.38980786621791935	0.3288199202491327	1.2991080462519933	0.22357394206680736	0.24839034292692427	1.39478208857374	0.21217928986562762	0.2504257130746965	1.3873668051071515	0.173633237247727	0.2563085632658048	1.3286281204436867	0.1874545099221283	0.09297571793457482	1.4698770656267228	0.4768632665848967	0.04795348184653978	1.2346856951431726	0.4449366630680468	0.02287332050967599	0.9948293788327874	0.4316342184208448	0.053301031013504085	0.8829528437974417	0.4142963014006265	0.03560807877280438	0.8500861399323877	0.39428797995664266	0.009660559530686636	0.8553239862634204	0.44608254385337376	
75	1.5957446808510638	0.34136720151568944	1.043808489121585	0.49475665005973074	0.3529077343301077	0.5791692536807994	0.5448014234446125	0.3598807947671112	0.14169685238607968	0.5917754171300997	0.2848784684513209	0.12880295107919537	0.4153357629825957	0.353306522707295	0.13062169425413084	0.41465002159305364	0.34489632165812273	0.0685763503154238	0.6936093307538433	0.13621100988536358	1.050130763586977	0.49331456271990987	0.11535488069739497	0.580173937421802	0.5460014082482069	0.12960377394522168	0.15147876642532135	0.5977240643451025	0.13044172341197363	0.1258958671982814	0.4237993862180279	0.08206595937456466	0.11224695863806149	0.47216328537641133	0.15164135710109874	0.070176652181837	0.6748426654254426	0.2413661715598746	1.5391534199168047	0.41400293232098884	0.2380468978250872	1.7736402039902086	0.2556489134849067	0.23881152926154203	1.6298583334171657	0.24142582050040579	0.38209071619359575	1.4769954493256094	0.41786893944674514	0.4428656646660969	1.1981169054126084	0.4133854970494523	0.32948789435247294	1.2864499780354932	0.22903914227602157	0.24765910383957312	1.380363496290208	0.21034722579273374	0.24936507187758497	1.3707558008575438	0.1760030862476455	0.2563430469245768	1.3113477441175967	0.19118321352467021	0.0918055609273911	1.4686896320636738	0.47782564707432906	0.047886849902674375	1.2339208269600714	0.4451415464968686	0.022855687111333133	0.9945459626003612	0.43180190596435136	0.051571801563101566	0.8830774224830618	0.41356983338290265	0.03399599679542273	0.8505677094881338	0.39086998583207655	0.008937798182962226	0.8546489379660405	0.4481211379408183	
